<?xml version="1.0" standalone="no"?>
<!DOCTYPE svg PUBLIC "-//W3C//DTD SVG 1.1//EN" "http://www.w3.org/Graphics/SVG/1.1/DTD/svg11.dtd" >
<svg xmlns="http://www.w3.org/2000/svg" xmlns:xlink="http://www.w3.org/1999/xlink" version="1.1">
<metadata></metadata>
<defs>
<font id="museo_slab700_italic" horiz-adv-x="566" >
<font-face units-per-em="1000" ascent="750" descent="-250" />
<missing-glyph horiz-adv-x="250" />
<glyph unicode="&#xfb01;" horiz-adv-x="668" d="M51 0l81 415h-79l18 95h79l4 21q9 48 31 83.5t47 55t57 31t55.5 15t47.5 3.5q18 0 36 -2l14 -2l-21 -102l-9 2q-7 1 -24 1q-90 0 -107 -82l-5 -24h330l-68 -345q-3 -15 -3 -31q0 -41 42 -41q12 0 16 1q3 1 6 1l-18 -95l-14 -2q-9 -1 -31 -1q-28 0 -47.5 3t-41 13 t-33 32.5t-11.5 57.5q0 17 7 52l51 260h-203l-80 -415h-127zM495 597l22 113h129l-23 -113h-128z" />
<glyph unicode="&#xfb02;" horiz-adv-x="675" d="M51 0l80 415h-78l18 95h78l4 16q40 202 286 202q77 0 146 -15l60 -15l-101 -524q-5 -25 -5 -37q0 -22 10.5 -30t32.5 -8q4 0 9.5 0.5t7.5 0.5h6l-20 -101l-14 -2q-8 -1 -31 -1q-58 0 -95 23t-37 90q0 23 6 53l89 461q-2 0 -9 1.5t-12 2.5q-20 4 -57 4q-124 0 -145 -104 l-4 -17h116l-18 -95h-116l-80 -415h-127z" />
<glyph unicode="&#xfb03;" horiz-adv-x="1010" d="M51 0l80 415h-78l18 95h78l5 21q9 48 31 83.5t47 55t57 31t55.5 15t47.5 3.5q18 0 36 -2l14 -2l-21 -102l-9 2q-7 1 -24 1q-90 0 -107 -82l-5 -24h215l4 21q9 48 31 83.5t47.5 55t57 31t55.5 15t48 3.5q17 0 35 -2l14 -2l-21 -102l-9 2q-7 1 -24 1q-89 0 -106 -82l-5 -24 h329l-67 -345q-4 -15 -4 -31q0 -41 43 -41q12 0 16 1q3 1 6 1l-19 -95l-14 -2q-8 -1 -30 -1q-28 0 -47.5 3t-41 13t-33 32.5t-11.5 57.5q0 22 6 52l51 260h-202l-81 -415h-127l81 415h-215l-80 -415h-127zM836 597l23 113h128l-22 -113h-129z" />
<glyph unicode="&#xfb04;" horiz-adv-x="1016" d="M51 0l80 415h-78l18 95h78l5 21q9 48 31 83.5t47 55t57 31t55.5 15t47.5 3.5q18 0 36 -2l14 -2l-21 -102l-9 2q-7 1 -24 1q-90 0 -107 -82l-5 -24h215l3 16q40 202 286 202q78 0 147 -15l60 -15l-102 -524q-4 -17 -4 -37q0 -22 10 -30t32 -8q4 0 9.5 0.5t7.5 0.5h7 l-21 -101l-13 -2q-8 -1 -31 -1q-58 0 -95.5 23t-37.5 90q0 23 6 53l90 461q-2 0 -9 1.5t-12 2.5q-20 4 -58 4q-124 0 -145 -104l-3 -17h115l-18 -95h-115l-81 -415h-127l81 415h-215l-80 -415h-127z" />
<glyph horiz-adv-x="0" />
<glyph horiz-adv-x="333" />
<glyph unicode=" "  horiz-adv-x="250" />
<glyph unicode="&#x09;" horiz-adv-x="250" />
<glyph unicode="&#xa0;" horiz-adv-x="250" />
<glyph unicode="!" horiz-adv-x="269" d="M60 205l88 505h132l-109 -505h-111zM15 0l24 119h123l-24 -119h-123z" />
<glyph unicode="&#x22;" horiz-adv-x="374" d="M259 500l43 223h94l-43 -223h-94zM98 500l44 223h94l-43 -223h-95z" />
<glyph unicode="#" horiz-adv-x="713" d="M65 0l69 187h-116l32 91h117l52 140h-115l33 92h115l74 200h104l-74 -200h137l74 200h104l-74 -200h118l-33 -92h-118l-52 -140h117l-33 -91h-117l-69 -187h-104l69 187h-137l-69 -187h-104zM271 278h137l52 140h-137z" />
<glyph unicode="$" horiz-adv-x="554" d="M2 99l73 83q21 -20 44 -33q54 -33 112 -33q52 0 94 25.5t42 67.5q0 23 -15.5 42t-40 33t-54 27.5t-59.5 30.5t-54.5 37t-40 51t-15.5 69q0 84 65.5 140.5t162.5 65.5l19 106h86l-19 -109q66 -8 121 -41q23 -13 39 -30l-67 -90q-19 17 -42 27q-54 26 -105 26 q-53 0 -92 -26t-39 -65q0 -31 29 -54.5t70 -41.5t82.5 -39.5t70.5 -59.5t29 -90q0 -84 -67.5 -146t-168.5 -68l-18 -105h-86l19 110q-76 11 -134 52q-22 16 -41 38z" />
<glyph unicode="%" horiz-adv-x="809" d="M238 406q-66 0 -106.5 39t-40.5 102q0 66 56.5 120.5t128.5 54.5q65 0 106 -40.5t41 -101.5q0 -68 -57.5 -121t-127.5 -53zM19 0l670 710h123l-670 -710h-123zM247 498q31 0 54.5 23t23.5 55q0 24 -16 39t-42 15q-30 0 -54 -24t-24 -55q0 -24 15.5 -38.5t42.5 -14.5z M409 128q0 68 56.5 121.5t127.5 53.5q66 0 107 -40.5t41 -101.5q0 -68 -57.5 -120.5t-127.5 -52.5q-66 0 -106.5 39t-40.5 101zM507 133q0 -24 15.5 -38.5t42.5 -14.5q31 0 54.5 23t23.5 55q0 24 -16 39t-42 15q-30 0 -54 -24t-24 -55z" />
<glyph unicode="&#x26;" horiz-adv-x="669" d="M24 182q0 65 46 122t116 76v2q-19 9 -33 25q-34 38 -34 94q0 104 76 162.5t177 58.5q33 0 71 -8l29 -8l-48 -98l-15 3q-18 2 -33 2q-52 0 -90 -31t-38 -85q0 -76 91 -76h114l18 96h127l-19 -96h92l-21 -104h-92l-16 -88q-24 -121 -96.5 -181t-186.5 -60 q-110 0 -172.5 53.5t-62.5 140.5zM159 193q0 -42 28 -66.5t76 -24.5q61 0 101 34.5t53 99.5l15 81h-120q-61 0 -107 -32t-46 -92z" />
<glyph unicode="'" horiz-adv-x="216" d="M98 500l44 223h96l-43 -223h-97z" />
<glyph unicode="(" horiz-adv-x="334" d="M217 -95h-104q-54 135 -54 271q0 323 209 565h112q-210 -259 -210 -568q0 -140 47 -268z" />
<glyph unicode=")" horiz-adv-x="336" d="M76 -95h-111q209 261 209 568q0 143 -46 268h103q55 -132 55 -271q0 -325 -210 -565z" />
<glyph unicode="*" horiz-adv-x="488" d="M178 321l-83 68l103 102l1 2l-117 29l55 106l111 -49l17 131h115l-35 -131l131 49l15 -109l-136 -34l-1 -2l63 -97l-98 -66l-50 111h-2z" />
<glyph unicode="+" horiz-adv-x="619" d="M200 0l46 236h-216l18 99h217l46 237h103l-46 -237h216l-19 -99h-216l-46 -236h-103z" />
<glyph unicode="," horiz-adv-x="282" d="M59 129h129l-149 -248h-99z" />
<glyph unicode="-" horiz-adv-x="466" d="M69 230l21 111h301l-21 -111h-301z" />
<glyph unicode="." horiz-adv-x="269" d="M15 0l24 128h127l-24 -128h-127z" />
<glyph unicode="/" horiz-adv-x="447" d="M-28 -42l407 788h117l-408 -788h-116z" />
<glyph unicode="0" horiz-adv-x="630" d="M55 228q0 58 10 121t34 131t59.5 120.5t93 87t127.5 34.5q219 0 219 -239q0 -58 -10 -121t-34.5 -131t-60 -121t-92.5 -87.5t-127 -34.5q-219 0 -219 240zM187 232q0 -129 90 -129q47 0 85 39.5t59.5 99.5t32.5 121t11 113q0 131 -90 131q-46 0 -83.5 -39t-59.5 -98 t-33.5 -121t-11.5 -117z" />
<glyph unicode="1" horiz-adv-x="506" d="M-3 0l19 105h154l78 394q1 6 3 17t4 17l4 16h-2l-10 -11q-7 -8 -26 -25l-73 -60l-63 85l216 172h113l-118 -605h153l-21 -105h-431z" />
<glyph unicode="2" horiz-adv-x="594" d="M484 0h-483q1 65 25 120.5t61.5 94t82.5 71t90 60t82.5 53.5t60.5 58t23 67q0 39 -25 61t-67 22q-54 0 -106 -44q-25 -20 -43 -44l-86 68q28 37 67 68q82 67 183 67q92 0 153.5 -49.5t61.5 -133.5q0 -64 -39 -119.5t-96.5 -95t-115.5 -74t-103 -72t-53 -73.5h235l18 90 h112z" />
<glyph unicode="3" horiz-adv-x="581" d="M0 81l72 89q18 -18 42 -33q54 -34 111 -34q63 0 109 39t46 94q0 43 -33 67.5t-87 24.5q-20 0 -28 -1l-13 -2l-17 63l188 192q12 11 22 19q3 3 11 7v2q-9 0 -14 -1q-16 -2 -27 -2h-148l-17 -84h-112l37 189h447l-17 -91l-206 -207q60 -13 104.5 -53t44.5 -112 q0 -103 -82 -181t-209 -78q-87 0 -167 47q-31 18 -57 46z" />
<glyph unicode="4" horiz-adv-x="617" d="M5 183l14 79l390 448h156l-82 -426h91l-19 -101h-92l-36 -183h-127l36 183h-331zM162 284h193l47 237q7 33 10 40l7 21h-3q-3 -6 -11 -18q-15 -21 -28 -36l-215 -242v-2z" />
<glyph unicode="5" horiz-adv-x="577" d="M1 81l73 85q18 -18 40 -31q54 -32 107 -32q66 0 115 41t49 102q0 49 -33 75.5t-89 26.5q-46 0 -85 -15l-34 -15l-70 29l106 363h384l-37 -189h-112l17 84h-161l-39 -129q-5 -19 -9 -28l-4 -11h2l24 8q26 7 59 7q94 0 154.5 -55.5t60.5 -149.5q0 -107 -89 -183t-213 -76 q-88 0 -162 47q-30 18 -54 46z" />
<glyph unicode="6" horiz-adv-x="611" d="M49 250q0 74 28 155t78 152.5t129.5 118t172.5 46.5q55 0 109 -16q25 -8 39 -16l-51 -104q-11 6 -29 11q-38 10 -72 10q-81 0 -141.5 -56t-91.5 -138h2q23 23 61 36.5t77 13.5q92 0 145 -56.5t53 -141.5q0 -108 -75.5 -192.5t-195.5 -84.5q-105 0 -171.5 70t-66.5 192z M180 242q0 -56 32.5 -97.5t82.5 -41.5q56 0 93.5 46t37.5 108q0 45 -27.5 73t-82.5 28q-56 0 -96 -33t-40 -83z" />
<glyph unicode="7" horiz-adv-x="558" d="M28 0l394 571q5 7 12 15.5t9 10.5l8 9v2q-8 0 -13 -1q-16 -2 -32 -2h-196l-16 -84h-112l37 189h498l-18 -90l-432 -620h-139z" />
<glyph unicode="8" horiz-adv-x="612" d="M29 177q0 38 14.5 72.5t42 62.5t47.5 43.5t49 35.5q-61 51 -61 119q0 84 69 148t183 64q96 0 155 -46t59 -123q0 -98 -121 -206q75 -53 75 -131q0 -91 -80 -159.5t-201 -68.5q-105 0 -168 53t-63 136zM381 394q11 9 26.5 26.5t33.5 51.5t18 64q0 35 -24 54.5t-66 19.5 q-52 0 -86.5 -28t-34.5 -70q0 -11 3.5 -21t7.5 -18t14.5 -16.5t16.5 -13.5t21 -13.5t21.5 -12t25 -12t23.5 -11.5zM162 194q0 -44 29 -69t77 -25q54 0 97 30.5t43 81.5q0 19 -7.5 34t-26.5 29t-31 21.5t-43 22t-40 19.5q-98 -72 -98 -144z" />
<glyph unicode="9" horiz-adv-x="610" d="M31 20l50 104q10 -5 28 -10q42 -11 70 -11q81 0 142 56t92 139h-2q-23 -23 -61 -36.5t-78 -13.5q-92 0 -145 56t-53 140q0 108 75.5 193t195.5 85q105 0 171.5 -70t66.5 -193q0 -58 -17 -122t-52 -126t-82.5 -112t-114 -80.5t-141.5 -30.5q-56 0 -106 16q-25 8 -39 16z M315 354q56 0 96.5 32.5t40.5 81.5q0 56 -32 97.5t-82 41.5q-56 0 -94 -46t-38 -108q0 -45 27 -72t82 -27z" />
<glyph unicode=":" horiz-adv-x="303" d="M104 381l25 129h127l-25 -129h-127zM29 0l25 128h128l-25 -128h-128z" />
<glyph unicode=";" horiz-adv-x="309" d="M114 381l25 129h124l-25 -129h-124zM-52 -119l117 248h131l-149 -248h-99z" />
<glyph unicode="&#x3c;" horiz-adv-x="619" d="M45 245v82l481 214v-111l-347 -143v-2l347 -143v-111z" />
<glyph unicode="=" horiz-adv-x="619" d="M61 339v98h489v-98h-489zM61 134v98h489v-98h-489z" />
<glyph unicode="&#x3e;" horiz-adv-x="619" d="M91 31v111l346 143v2l-346 143v111l481 -214v-82z" />
<glyph unicode="?" horiz-adv-x="490" d="M127 205l9 48q8 43 33.5 78.5t56 59t60 45t49 47.5t19.5 55q0 30 -23 49.5t-59 19.5q-40 0 -80 -21l-34 -21l-58 95q28 20 55 32q70 32 136 32q84 0 140.5 -45.5t56.5 -122.5q0 -50 -22 -90.5t-54 -67.5t-65 -50t-59 -49.5t-31 -54.5l-8 -39h-122zM88 0l23 119h123 l-23 -119h-123z" />
<glyph unicode="@" horiz-adv-x="811" d="M23 184q0 172 135 300.5t322 128.5q117 0 175 -50.5t58 -132.5q0 -21 -5 -53l-45 -232h73l-18 -91h-264q-91 0 -142.5 47t-51.5 116q0 83 69.5 144.5t188.5 61.5h80q1 1 1 5v9q0 32 -38 53t-95 21q-128 0 -222 -101t-94 -226q0 -94 59 -154t166 -60l-19 -97 q-147 0 -240 86t-93 225zM387 223q0 -35 21.5 -56.5t58.5 -21.5h77l38 196h-75q-50 0 -85 -36t-35 -82z" />
<glyph unicode="A" horiz-adv-x="728" d="M-45 0l19 98h64l332 612h148l95 -612h64l-19 -98h-262l19 98h70l-18 133h-224l-70 -133h70l-20 -98h-268zM293 333h163l-27 201q-2 13 -2 44v18h-3q-2 -8 -6 -18l-18 -44z" />
<glyph unicode="B" horiz-adv-x="693" d="M-6 0l19 98h84l101 513h-86l19 99h305q72 0 122 -18q47 -17 73 -54.5t26 -88.5q0 -57 -31 -103.5t-85 -71.5v-2q86 -34 86 -140q0 -73 -39.5 -128t-104.5 -82q-55 -22 -134 -22h-355zM291 420h125q48 0 78.5 31t30.5 79q0 43 -27 61q-19 14 -59 14h-112zM230 105h126 q49 0 84 23q55 41 55 106q0 39 -22 60.5t-64 21.5h-138z" />
<glyph unicode="C" horiz-adv-x="739" d="M51 300q0 173 127.5 297.5t301.5 124.5q38 0 81 -6.5t88.5 -21t70.5 -44t17 -68.5l-20 -98h-117l10 55q4 20 -8.5 35t-35 22t-44.5 10.5t-44 3.5q-124 0 -208 -92.5t-84 -210.5q0 -91 51.5 -149t143.5 -58q56 0 105.5 18t56.5 54l10 53h119l-18 -91q-7 -40 -37.5 -70 t-73.5 -45.5t-85.5 -23t-83.5 -7.5q-144 0 -233.5 87t-89.5 225z" />
<glyph unicode="D" horiz-adv-x="782" d="M-6 0l19 98h84l100 513h-85l19 99h296q93 0 159 -24q167 -60 167 -260q0 -128 -68 -237t-181 -157q-78 -32 -176 -32h-334zM229 105h94q78 0 138 29q72 36 116 114t44 168q0 129 -94 171q-43 18 -107 18h-94z" />
<glyph unicode="E" horiz-adv-x="642" d="M-6 0l19 98h84l101 513h-86l19 99h527l-35 -183h-112l15 78h-199l-38 -195h234l-21 -105h-233l-39 -200h213l16 80h112l-36 -185h-541z" />
<glyph unicode="F" horiz-adv-x="592" d="M-6 0l19 98h84l101 513h-86l19 99h507l-36 -184h-112l14 73h-178l-39 -204h230l-21 -105h-230l-38 -192h94l-19 -98h-309z" />
<glyph unicode="G" horiz-adv-x="771" d="M51 298q0 114 58 211.5t159 155t220 57.5q43 0 89 -7.5t90 -23t68.5 -44t17.5 -65.5l-20 -98h-118l10 52q7 38 -38 56t-101 18q-129 0 -214 -93.5t-85 -212.5q0 -92 52.5 -148t156.5 -56q59 0 113.5 18t61.5 56l15 76h-129l19 98h248l-42 -211q-7 -40 -38.5 -70 t-76 -46.5t-91 -24.5t-93.5 -8q-151 0 -241.5 85.5t-90.5 224.5z" />
<glyph unicode="H" horiz-adv-x="858" d="M-6 0l19 98h84l100 513h-85l19 99h302l-19 -99h-86l-40 -205h323l40 205h-86l19 99h302l-19 -99h-85l-101 -513h86l-19 -98h-302l19 98h85l40 203h-322l-40 -203h85l-19 -98h-300z" />
<glyph unicode="I" horiz-adv-x="405" d="M-6 0l19 98h84l100 513h-85l19 99h302l-19 -99h-86l-100 -513h85l-19 -98h-300z" />
<glyph unicode="J" d="M-3 164q0 32 7 60q3 9 7 27h125l-6 -24q-6 -30 -6 -49q0 -75 72 -75q39 0 68 25.5t40 79.5l78 403h-100l19 99h307l-19 -99h-76l-79 -410q-21 -105 -88.5 -159t-153.5 -54q-81 0 -138 46t-57 130z" />
<glyph unicode="K" horiz-adv-x="715" d="M-6 0l19 98h84l100 513h-85l19 99h283l-19 -99h-67l-38 -193h75l172 193h-56l19 99h259l-19 -99h-65l-217 -241v-2q8 -6 11 -10q10 -10 20 -37l65 -177q9 -27 19.5 -37.5t35.5 -10.5q13 0 20 1q3 1 11 1l-19 -98q-36 -3 -58 -3q-62 0 -89.5 26t-45.5 74l-63 183 q-11 33 -50 33h-45l-42 -215h82l-19 -98h-297z" />
<glyph unicode="L" horiz-adv-x="614" d="M-5 0l19 98h85l99 507h-86l21 105h301l-20 -105h-86l-97 -500h210l22 110h112l-43 -215h-537z" />
<glyph unicode="M" horiz-adv-x="969" d="M-18 0l19 98h83l139 513h-84l19 99h228l78 -401q3 -14 6 -43q1 -6 1 -16h2l7 16q11 24 21 43l236 401h235l-19 -99h-84l-62 -513h84l-19 -98h-290l19 98h80l43 358q9 38 10 42q4 10 6 24h-3l-9 -22q-3 -6 -9.5 -20.5t-10.5 -20.5l-199 -327h-113l-71 327q-1 5 -4 41 q-1 7 -1 22h-3l-3 -24q-2 -6 -4 -21t-3 -21l-96 -358h79l-19 -98h-289z" />
<glyph unicode="N" horiz-adv-x="848" d="M-6 0l19 98h84l101 513h-86l19 99h213l211 -462q3 -6 11 -37q2 -8 4 -20h3q0 8 2 22l3 21t4 20l70 357h-88l19 99h304l-19 -99h-85l-119 -611h-128l-213 462q-3 6 -11 37q-2 7 -4 19h-3l-2 -22q-2 -29 -5 -41l-70 -357h88l-19 -98h-303z" />
<glyph unicode="O" horiz-adv-x="821" d="M50 300q0 112 59.5 209.5t158.5 155t210 57.5q139 0 227 -86t88 -219q0 -113 -60 -212.5t-159.5 -158t-209.5 -58.5q-139 0 -226.5 88t-87.5 224zM182 307q0 -90 53 -147t138 -57q109 0 198 91t89 215q0 88 -53 143t-138 55q-111 0 -199 -89t-88 -211z" />
<glyph unicode="P" horiz-adv-x="669" d="M-5 0l19 98h85l101 513h-86l19 99h327q66 0 109 -16q50 -19 80.5 -65.5t30.5 -112.5q0 -81 -44 -148t-116 -97q-46 -19 -120 -19h-139l-31 -154h86l-19 -98h-302zM281 357h116q41 0 73 15q35 17 56 54t21 82q0 60 -38 83q-26 14 -65 14h-115z" />
<glyph unicode="Q" horiz-adv-x="822" d="M50 300q0 111 59.5 209t157 155.5t204.5 57.5q145 0 234 -86t89 -219q0 -162 -123 -290l63 -71l-82 -76l-63 78q-97 -70 -216 -70q-145 0 -234 88t-89 224zM183 307q0 -90 53 -147t138 -57q71 0 139 43l-84 101l80 74l82 -100q70 83 70 188q0 88 -53 143t-138 55 q-112 0 -199.5 -89t-87.5 -211z" />
<glyph unicode="R" horiz-adv-x="715" d="M-5 0l19 98h85l101 513h-86l19 99h323q80 0 123 -21q91 -43 91 -158q0 -77 -45.5 -142.5t-126.5 -88.5v-3q10 -13 11 -14q13 -14 18 -32l42 -107q9 -27 19.5 -37.5t34.5 -10.5q13 0 20 1q3 1 10 1l-19 -98q-36 -3 -56 -3q-43 0 -71.5 16t-39.5 34t-23 50l-50 137 q-8 22 -21 30t-37 8h-71l-34 -174h81l-19 -98h-298zM285 377h114q58 0 98.5 38t40.5 99q0 49 -32 73q-25 18 -78 18h-99z" />
<glyph unicode="S" horiz-adv-x="604" d="M26 156l14 74h119l-11 -53q-8 -38 29 -56t92 -18q63 0 100.5 31t37.5 77q0 34 -31.5 57.5t-76.5 40t-90 36.5t-76.5 60.5t-31.5 99.5q0 104 81 160.5t199 56.5q50 0 97 -11t83 -43t26 -80l-16 -84h-120l10 49q5 29 -23.5 41.5t-72.5 12.5q-58 0 -94.5 -25t-36.5 -69 q0 -34 31.5 -57t76.5 -39t90 -36t76.5 -61t31.5 -102q0 -106 -83.5 -168t-204.5 -62q-40 0 -80 9t-77.5 27t-57 52.5t-11.5 79.5z" />
<glyph unicode="T" horiz-adv-x="679" d="M129 0l19 98h85l99 507h-135l-20 -107h-112l41 212h623l-41 -212h-112l21 107h-134l-99 -507h85l-19 -98h-301z" />
<glyph unicode="U" horiz-adv-x="811" d="M102 201q0 36 11 85l63 325h-85l19 99h301l-19 -99h-85l-63 -325q-9 -52 -9 -69q0 -54 34.5 -84t97.5 -30q80 0 127 44q45 39 59 110l69 354h-85l19 99h301l-19 -99h-85l-71 -361q-26 -142 -128 -209q-79 -53 -190 -53q-114 0 -188 56.5t-74 156.5z" />
<glyph unicode="V" horiz-adv-x="720" d="M233 0l-96 611h-66l19 99h273l-19 -99h-74l53 -405q2 -10 2 -43q0 -14 -1 -21h3l7 21q5 16 18 43l212 405h-75l19 99h281l-19 -99h-65l-335 -611h-137z" />
<glyph unicode="W" horiz-adv-x="1017" d="M172 0l-32 611h-65l19 99h273l-19 -99h-83l13 -405q0 -30 -1 -42l-2 -20h3q6 16 7 20q9 27 16 42l231 504h105l35 -504q2 -22 0 -42q-1 -7 -1 -20h4q2 10 6 20q1 4 3.5 12t5 15.5t5.5 14.5l171 405h-83l19 99h281l-19 -99h-65l-271 -611h-146l-33 448q-1 16 1 43l2 22h-4 q-2 -12 -6 -22q-4 -14 -17 -43l-206 -448h-147z" />
<glyph unicode="X" horiz-adv-x="693" d="M-25 0l19 98h62l233 268l-123 245h-67l19 99h263l-19 -99h-70l70 -149q3 -4 6.5 -11.5t4.5 -9.5q2 -3 4 -9h2q1 4 6 9l18 21l122 149h-65l19 99h261l-19 -99h-63l-232 -267l124 -246h67l-19 -98h-263l19 98h70l-71 149l-10 22q-1 2 -4 10h-2l-8 -10q-3 -4 -9 -11t-9 -11 l-122 -149h67l-19 -98h-262z" />
<glyph unicode="Y" horiz-adv-x="658" d="M120 0l19 98h85l39 199l-128 314h-64l19 99h258l-19 -99h-68l71 -186q1 -4 3 -11t4 -11q2 -6 2 -10h2q2 6 6 10q6 11 16 22l145 186h-69l19 99h268l-19 -99h-64l-251 -314l-39 -199h86l-19 -98h-302z" />
<glyph unicode="Z" horiz-adv-x="646" d="M-3 0l16 83l429 489q10 12 25 25l12 9v2q-8 0 -13 -1q-16 -2 -28 -2h-208l-21 -107h-112l41 212h525l-16 -82l-430 -490q-5 -7 -14.5 -15t-10.5 -9l-12 -10v-2l13 2q8 1 28 1h223l22 110h112l-42 -215h-539z" />
<glyph unicode="[" horiz-adv-x="334" d="M16 -95l163 836h197l-18 -92h-89l-126 -652h89l-19 -92h-197z" />
<glyph unicode="\" horiz-adv-x="437" d="M228 -42l-102 788h104l102 -788h-104z" />
<glyph unicode="]" horiz-adv-x="334" d="M-15 -3h89l126 652h-89l19 92h197l-163 -836h-197z" />
<glyph unicode="^" horiz-adv-x="619" d="M7 245l201 465h80l201 -465h-110l-131 331l-131 -331h-110z" />
<glyph unicode="_" horiz-adv-x="569" d="M-54 0h561l-19 -98h-560z" />
<glyph unicode="`" horiz-adv-x="493" d="M198 757l-107 136h132l82 -136h-107z" />
<glyph unicode="a" d="M-5 119q0 55 33 95.5t86.5 61t108 30t110.5 9.5h18l3 16q3 13 3 26q0 63 -81 63q-48 0 -104 -23q-26 -11 -48 -24l-29 94q27 16 61 28q70 27 144 27q77 0 130 -36.5t53 -114.5q0 -31 -21 -124t-21 -113q0 -41 43 -41q12 0 16 1q3 1 6 1l-18 -95q-2 -1 -6.5 -1.5 t-6.5 -0.5q-9 -1 -40 -1q-109 0 -119 86h-2q0 -1 -7 -10t-22.5 -23.5t-35 -28t-48.5 -23.5t-60 -10q-62 0 -104 34t-42 97zM121 140q0 -58 63 -58q49 0 92 44.5t56 95.5l4 16h-22q-28 0 -55.5 -3.5t-61.5 -12.5t-55 -30t-21 -52z" />
<glyph unicode="b" horiz-adv-x="625" d="M22 0l119 615h-79l19 95h205l-42 -216l-8 -32l-4 -14h2q26 33 68.5 53.5t87.5 20.5q91 0 142 -57.5t51 -157.5q0 -136 -85 -227.5t-194 -91.5q-50 0 -90 20.5t-60 60.5h-2q0 -7 -1 -11q-3 -22 -4 -25l-6 -33h-119zM189 208q0 -49 26 -81t75 -32q62 0 113 56.5t51 146.5 q0 54 -26.5 84.5t-74.5 30.5q-64 0 -114 -60t-50 -145z" />
<glyph unicode="c" horiz-adv-x="565" d="M23 214q0 121 94.5 214.5t232.5 93.5q45 0 89 -10.5t77 -41.5t24 -76l-13 -64h-109l6 32q4 24 -22 38t-63 14q-77 0 -132 -57.5t-55 -133.5q0 -57 35 -92.5t102 -35.5q59 0 121 32q24 13 48 32l34 -96q-25 -21 -56 -37q-74 -38 -160 -38q-118 0 -185.5 63t-67.5 163z" />
<glyph unicode="d" horiz-adv-x="651" d="M25 201q0 139 84 230t199 91q103 0 140 -73h2q0 7 1 10l3 21l26 135h-79l19 95h205l-105 -545q-4 -15 -4 -31q0 -41 43 -41q12 0 16 1q3 1 6 1l-19 -95l-14 -2q-9 -1 -33 -1q-57 0 -88.5 18.5t-34.5 67.5h-2q-27 -41 -74 -68t-97 -27q-93 0 -143.5 57t-50.5 156zM154 210 q0 -54 26.5 -84.5t74.5 -30.5q64 0 113.5 61.5t49.5 142.5q0 50 -26 82t-75 32q-61 0 -112 -56.5t-51 -146.5z" />
<glyph unicode="e" horiz-adv-x="558" d="M24 207q0 131 85 223t211 92q99 0 151 -53t52 -140q0 -24 -8 -62l-9 -30h-351q0 -5 -1 -8q-2 -14 -2 -18q0 -52 34 -84t94 -32q56 0 110 28q27 13 48 28l34 -96q-23 -17 -58 -33q-72 -34 -142 -34q-116 0 -182 62t-66 157zM172 312h224q0 7 1 10q1 7 1 18q0 39 -22 61.5 t-59 22.5q-48 0 -87 -30.5t-58 -81.5z" />
<glyph unicode="f" horiz-adv-x="368" d="M51 0l80 415h-78l18 95h78l5 21q9 48 31 83.5t47 55t57 31t55.5 15t47.5 3.5q18 0 36 -2l14 -2l-21 -102l-9 2q-7 1 -24 1q-90 0 -107 -82l-5 -24h116l-18 -95h-116l-80 -415h-127z" />
<glyph unicode="g" horiz-adv-x="637" d="M-2 -162l51 89q14 -9 37 -17q48 -16 100 -16q143 0 171 138q8 35 9 37q1 3 2.5 7t1.5 6h-1q-57 -72 -145 -72q-93 0 -144.5 58t-51.5 151q0 115 74.5 209t195.5 94q68 0 106 -25.5t46 -52.5h2v5q0 1 0.5 3t1 4.5t0.5 5.5q3 20 20 34t46 14h128l-19 -95h-48q-23 0 -26 -20 l-72 -369q-13 -63 -42.5 -110t-70.5 -74t-85.5 -39.5t-92.5 -12.5q-103 0 -194 48zM157 229q0 -52 26 -82t76 -30q71 0 112 63t41 138q0 96 -103 96q-68 0 -110 -55.5t-42 -129.5z" />
<glyph unicode="h" horiz-adv-x="654" d="M22 0l119 615h-76l18 95h204l-48 -250q-3 -15 -8 -31q-5 -12 -5 -13h2q11 27 66.5 66.5t129.5 39.5q68 0 107 -35.5t39 -102.5q0 -34 -20.5 -133.5t-20.5 -116.5q0 -41 43 -41q12 0 15 1t6 1l-18 -95q-2 -1 -6.5 -1.5t-6.5 -0.5q-9 -1 -37 -1q-24 0 -43 3t-40 13 t-32.5 32.5t-11.5 56.5q0 28 20 125t20 118q0 61 -65 61q-66 0 -115.5 -53.5t-64.5 -128.5l-44 -224h-127z" />
<glyph unicode="i" horiz-adv-x="338" d="M163 597l22 113h128l-22 -113h-128zM71 103q0 22 6 52l51 260h-79l19 95h205l-67 -345q-4 -15 -4 -31q0 -41 43 -41q12 0 16 1q3 1 6 1l-18 -95l-14 -2q-9 -1 -31 -1q-28 0 -47.5 3t-41 13t-33 32.5t-11.5 57.5z" />
<glyph unicode="j" horiz-adv-x="315" d="M166 597l22 113h128l-22 -113h-128zM49 -13l82 428h-79l18 95h206l-100 -518q-11 -60 -40 -102.5t-66.5 -62t-69 -27t-61.5 -7.5q-29 0 -38 1l-14 2l20 99q1 -1 6 -1h16q102 0 120 93z" />
<glyph unicode="k" horiz-adv-x="582" d="M22 0l120 615h-79l18 95h206l-77 -394h58l107 99h-59l19 95h241l-19 -95h-55l-147 -139v-2l9 -10q12 -16 19 -33l44 -97q9 -21 20.5 -30.5t33.5 -9.5q1 0 6.5 0.5t9.5 0.5h12l-18 -95q-33 -3 -52 -3q-27 0 -47.5 6t-31.5 11.5t-22 22t-14.5 24t-12.5 30.5l-46 106 q-11 26 -38 26h-35l-44 -223h-126z" />
<glyph unicode="l" horiz-adv-x="310" d="M43 109q0 23 6 53l88 453h-79l19 95h205l-103 -536q-5 -25 -5 -37q0 -22 10.5 -30t32.5 -8q4 0 9.5 0.5t7.5 0.5h6l-20 -101l-13 -2q-8 -1 -31 -1q-58 0 -95.5 23t-37.5 90z" />
<glyph unicode="m" horiz-adv-x="985" d="M51 0l77 394q3 21 -18 21h-57l18 95h134q57 0 57 -44q0 -31 -12 -58h2q15 31 71 72.5t120 41.5q54 0 86.5 -29.5t37.5 -86.5h2q31 51 81.5 83.5t109.5 32.5q65 0 102.5 -36t37.5 -103q0 -32 -20.5 -131.5t-20.5 -117.5q0 -23 10.5 -32t31.5 -9q12 0 16 1q3 1 6 1l-18 -95 q-2 -1 -6.5 -1.5t-6.5 -0.5q-9 -1 -37 -1q-24 0 -43 3t-40 13t-32.5 32.5t-11.5 56.5q0 26 20 125.5t20 119.5q0 29 -13.5 44t-46.5 15q-58 0 -101.5 -54t-58.5 -128l-43 -224h-127l59 304q6 34 6 47q0 55 -58 55q-61 0 -105 -56t-60 -133l-42 -217h-127z" />
<glyph unicode="n" horiz-adv-x="683" d="M51 0l77 393q3 22 -18 22h-57l18 95h134q57 0 57 -45q0 -30 -12 -57h2q12 29 68 71.5t135 42.5q67 0 105 -35t38 -103q0 -34 -20.5 -133t-20.5 -117q0 -41 43 -41q12 0 16 1q3 1 6 1l-18 -95q-2 -1 -6.5 -1.5t-6.5 -0.5q-9 -1 -38 -1q-24 0 -42.5 3t-39.5 13t-32.5 32.5 t-11.5 56.5q0 28 19.5 125t19.5 118q0 61 -65 61q-64 0 -114 -53.5t-65 -128.5l-44 -224h-127z" />
<glyph unicode="o" horiz-adv-x="629" d="M23 214q0 130 97.5 219t226.5 89q106 0 174 -63t68 -162q0 -131 -98 -220t-226 -89q-106 0 -174 62.5t-68 163.5zM152 220q0 -56 34 -90t89 -34q71 0 128 56t57 137q0 57 -34 91t-89 34q-71 0 -128 -56.5t-57 -137.5z" />
<glyph unicode="p" horiz-adv-x="654" d="M12 -200l115 593q3 22 -17 22h-57l18 95h131q55 0 55 -39q0 -14 -9 -38h2q63 89 169 89q91 0 142 -57.5t51 -157.5q0 -137 -84 -228t-194 -91q-102 0 -145 75h-2q0 -8 -1 -13q-3 -25 -5 -33l-42 -217h-127zM219 210q0 -50 25.5 -82.5t74.5 -32.5q62 0 113 56.5t51 146.5 q0 54 -26.5 84.5t-74.5 30.5q-63 0 -113 -60.5t-50 -142.5z" />
<glyph unicode="q" horiz-adv-x="625" d="M25 200q0 140 84 231t199 91q107 0 147 -79h2v9q0 9 3 24l7 34h119l-120 -618h79l-18 -92h-206l43 220q6 28 8 32q1 3 2.5 7t1.5 6h-2q-21 -30 -62.5 -53.5t-92.5 -23.5q-92 0 -143 57t-51 155zM154 210q0 -54 26.5 -84.5t74.5 -30.5q64 0 113.5 61.5t49.5 142.5 q0 50 -25.5 82t-74.5 32q-62 0 -113 -56.5t-51 -146.5z" />
<glyph unicode="r" horiz-adv-x="431" d="M51 0l76 393q6 22 -18 22h-57l19 95h133q58 0 58 -45q0 -31 -17 -80h2q28 56 76.5 94t104.5 38q9 0 19 -1t11 -1l-25 -125q-1 0 -5 0.5t-11 1t-14 0.5q-60 0 -116.5 -58t-73.5 -148l-35 -186h-127z" />
<glyph unicode="s" horiz-adv-x="498" d="M1 120l10 50h108l-5 -26q-7 -32 25 -44.5t72 -12.5q44 0 70 16t26 43q0 22 -24.5 38t-59.5 28.5t-70.5 28t-60 45.5t-24.5 74q0 79 67 120.5t161 41.5q73 0 126 -29.5t42 -85.5l-11 -56h-109l5 30q3 23 -18.5 32t-50.5 9q-40 0 -64 -14t-24 -40q0 -24 24.5 -39.5t60 -27 t71 -25.5t60 -43.5t24.5 -72.5q0 -77 -66.5 -124.5t-171.5 -47.5q-49 0 -93.5 11.5t-76 43t-23.5 77.5z" />
<glyph unicode="t" horiz-adv-x="380" d="M72 150q0 15 5 47l43 218h-79l19 95h82l27 139h122l-27 -139h117l-18 -95h-117l-41 -214q-3 -12 -3 -34q0 -69 80 -69q15 0 20 1q3 1 8 1l-20 -102l-12 -2q-7 -1 -25 -1q-50 0 -88.5 13t-65.5 49.5t-27 92.5z" />
<glyph unicode="u" horiz-adv-x="679" d="M71 125q0 21 7 61l44 229h-79l19 95h206l-59 -302q-6 -34 -6 -47q0 -60 64 -60q63 0 113 55t63 124l26 135h-79l19 95h206l-68 -345q-3 -15 -3 -31q0 -41 43 -41q12 0 15 1t6 1l-18 -95l-15 -2q-11 -1 -39 -1q-116 0 -116 105h-2q-77 -114 -200 -114q-64 0 -105.5 34.5 t-41.5 102.5z" />
<glyph unicode="v" horiz-adv-x="599" d="M168 0l-74 415h-62l19 95h241l-19 -95h-58l40 -252q3 -19 3 -38q0 -13 -1 -18h3q2 7 6 18q7 20 17 38l138 252h-58l19 95h249l-19 -95h-62l-236 -415h-146z" />
<glyph unicode="w" horiz-adv-x="865" d="M132 0l-37 415h-61l19 95h241l-19 -95h-62l19 -249q1 -14 -1 -37l-2 -18h4l5 18q3 11 13 37l163 343h112l28 -343q1 -14 -1 -37l-2 -18h4l5 18q3 11 13 37l116 249h-61l18 95h249l-18 -95h-62l-198 -415h-145l-28 299q-2 21 0 38q1 7 1 18h-3q-2 -12 -5 -18 q-11 -31 -15 -38l-146 -299h-144z" />
<glyph unicode="x" horiz-adv-x="576" d="M-16 0l18 95h65l148 169l-65 133q-5 11 -11 14.5t-20 3.5h-53l19 95h101q25 0 36.5 -7.5t21.5 -30.5l39 -94q2 -5 5 -13t4 -11l4 -11h2l7 11q13 19 18 24l107 132h146l-18 -95h-64l-143 -162l59 -119q8 -15 12.5 -21.5t15.5 -12.5t28 -6q1 0 8 0.5t12 0.5h14l-19 -95 q-33 -3 -47 -3q-27 0 -47.5 6t-32 12.5t-22.5 22.5t-15 24t-13 29l-20 50q-2 4 -5 12.5t-4 11.5l-4 11h-2l-7 -11l-18 -24l-114 -141h-146z" />
<glyph unicode="y" horiz-adv-x="606" d="M-68 -173l57 89q8 -6 19 -11q19 -11 54 -11q64 0 101 59l20 32l-91 430h-61l18 95h247l-18 -95h-60l43 -258q4 -15 2 -36l-2 -17h3l7 17q7 18 17 36l143 258h-59l19 95h244l-18 -95h-59l-281 -481q-85 -144 -218 -144q-48 0 -94 18q-17 7 -33 19z" />
<glyph unicode="z" horiz-adv-x="540" d="M-13 0l15 81l307 299q37 35 41 35v2q-10 0 -15 -1q-9 -1 -33 -1h-120l-14 -74h-108l33 169h431l-16 -82l-304 -298q-9 -9 -19 -18t-16 -13.5t-6 -3.5v-2q10 0 15 1q9 1 33 1h137l14 73h109l-34 -168h-450z" />
<glyph unicode="{" horiz-adv-x="359" d="M70 34q0 23 5 47l16 87q3 15 3 28q0 44 -33 65q-16 10 -34 11l21 111q25 3 46 15q47 29 60 91l18 95q35 177 239 159l-18 -94q-35 5 -70 -13t-46 -71l-23 -119q-11 -57 -61 -95q-21 -15 -47 -23v-2q17 -7 31 -21q30 -32 30 -83q0 -14 -3 -31l-21 -107q-3 -15 -3 -29 q0 -67 86 -58l-18 -94q-6 0 -9 -1q-7 -1 -23 -1q-19 0 -40 5t-47 17.5t-42.5 41t-16.5 69.5z" />
<glyph unicode="|" horiz-adv-x="344" d="M121 -161v957h108v-957h-108z" />
<glyph unicode="}" horiz-adv-x="359" d="M-42 -97l18 94q36 -5 70.5 13.5t45.5 70.5l25 127q14 61 61 97q21 15 47 23v2q-17 8 -30 21q-31 33 -31 82q0 13 3 31l19 101q3 13 3 26q0 67 -86 58l18 94q28 3 56.5 -1.5t57 -17.5t46.5 -42.5t18 -70.5q0 -25 -5 -46l-14 -78q-3 -16 -3 -28q0 -43 34 -65q16 -10 33 -11 l-21 -111q-24 -3 -45 -15q-48 -30 -61 -92l-20 -104q-36 -176 -239 -158z" />
<glyph unicode="~" horiz-adv-x="606" d="M152 199h-100q0 182 153 182q34 0 61.5 -14t43 -31.5t36.5 -31.5t43 -14q31 0 46.5 25t15.5 62h100q0 -182 -152 -182q-34 0 -62 14t-43.5 31t-36.5 31t-43 14q-31 0 -46.5 -24.5t-15.5 -61.5z" />
<glyph unicode="&#xa1;" horiz-adv-x="266" d="M88 391l23 119h124l-24 -119h-123zM-30 -200l109 505h111l-88 -505h-132z" />
<glyph unicode="&#xa2;" horiz-adv-x="578" d="M195 -12l17 89q-76 18 -120 77.5t-44 148.5q0 130 81 226t192 108l16 84h86l-17 -89q82 -18 128 -90q19 -31 27 -68l-114 -42q-4 23 -17 44q-29 44 -85 44q-69 0 -118.5 -62.5t-49.5 -151.5q0 -55 26.5 -85.5t76.5 -30.5q57 0 103 44q22 20 36 43l108 -46 q-23 -42 -55 -76q-76 -76 -175 -85l-16 -82h-86z" />
<glyph unicode="&#xa3;" horiz-adv-x="624" d="M-13 0l19 101h83l42 210h-71l17 87h70l26 130q16 85 85.5 139.5t163.5 54.5q69 0 131 -38q28 -18 46 -39l-81 -79q-12 12 -27 21q-31 20 -72 20q-44 0 -77 -26t-41 -66l-23 -117h170l-17 -87h-169l-42 -210h214l22 114h112l-41 -215h-540z" />
<glyph unicode="&#xa5;" horiz-adv-x="644" d="M195 0l37 186h-163l14 77h163l7 33l-17 48h-137l15 76h98l-97 290h140l57 -190q0 -1 17 -78q1 -4 3.5 -17t4.5 -19h2l19 36q11 23 43 77l129 191h153l-211 -290h99l-15 -76h-138l-34 -48l-7 -33h162l-14 -77h-162l-37 -186h-131z" />
<glyph unicode="&#xa7;" horiz-adv-x="465" d="M108 138l-5 337q-6 104 54 175.5t167 71.5q68 0 126 -32q26 -14 45 -33l-66 -74q-13 11 -28 18q-36 17 -77 17q-62 0 -94.5 -40t-29.5 -104l4 -336h-96zM-16 3l66 74q14 -11 28 -17q38 -18 77 -18q63 0 95 39.5t29 104.5l-5 336h97l5 -337q4 -105 -55 -176t-167 -71 q-67 0 -125 32q-25 14 -45 33z" />
<glyph unicode="&#xa8;" horiz-adv-x="493" d="M239 777l24 116h104l-24 -116h-104zM22 777l23 116h104l-24 -116h-103z" />
<glyph unicode="&#xa9;" horiz-adv-x="809" d="M57 355q0 153 104 259.5t252 106.5q151 0 256 -106.5t105 -259.5q0 -152 -105 -259.5t-256 -107.5q-148 0 -252 107.5t-104 259.5zM146 355q0 -120 77 -203t190 -83q115 0 193.5 83t78.5 203t-78.5 202.5t-193.5 82.5q-113 0 -190 -82.5t-77 -202.5zM232 353q0 81 53 138 t134 57q78 0 126 -52q22 -22 36 -53l-76 -36q-6 13 -20 29q-29 29 -63 29q-44 0 -71.5 -32.5t-27.5 -79.5q0 -50 26 -81t73 -31q34 0 63 29q14 16 20 29l76 -35q-14 -30 -36 -53q-53 -53 -126 -53q-81 0 -134 57t-53 138z" />
<glyph unicode="&#xaa;" horiz-adv-x="423" d="M192 383q-38 0 -65.5 22.5t-27.5 62.5q0 120 203 120h14q0 4 1 7t1 9q6 46 -48 46q-27 0 -59 -13q-20 -8 -29 -13l-22 62q20 11 37 17q45 17 98 17q114 0 114 -101q0 -19 -4 -36l-38 -194h-84l9 47h-2q-12 -17 -25 -26q-35 -27 -73 -27zM226 450q27 0 49.5 24.5 t28.5 59.5h-11q-22 0 -43 -3.5t-40.5 -16.5t-19.5 -34q0 -30 36 -30zM61 266l12 68h287l-13 -68h-286z" />
<glyph unicode="&#xab;" horiz-adv-x="603" d="M386 77l-129 206l210 205h128l-222 -211l129 -200h-116zM163 77l-129 206l191 205h126l-201 -211l129 -200h-116z" />
<glyph unicode="&#xac;" horiz-adv-x="635" d="M67 339v98h488v-294h-102v196h-386z" />
<glyph unicode="&#xad;" horiz-adv-x="466" d="M69 230l21 111h301l-21 -111h-301z" />
<glyph unicode="&#xae;" horiz-adv-x="809" d="M57 355q0 153 104 259.5t252 106.5q151 0 256 -106.5t105 -259.5q0 -152 -105 -259.5t-256 -107.5q-148 0 -252 107.5t-104 259.5zM146 355q0 -120 77 -203t190 -83q115 0 193.5 83t78.5 203t-78.5 202.5t-193.5 82.5q-113 0 -190 -82.5t-77 -202.5zM288 174v366h153 q54 0 86.5 -31.5t32.5 -84.5q0 -38 -20 -62.5t-44 -32.5v-2l3 -4q4 -4 10 -17l68 -132h-93l-62 135h-48v-135h-86zM374 369h47q52 0 52 55q0 54 -51 54h-48v-109z" />
<glyph unicode="&#xaf;" horiz-adv-x="493" d="M55 783l17 87h262l-16 -87h-263z" />
<glyph unicode="&#xb0;" horiz-adv-x="403" d="M236 408q-66 0 -107.5 39.5t-41.5 99.5q0 68 55.5 122t124.5 54q65 0 107 -40.5t42 -100.5q0 -69 -56 -121.5t-124 -52.5zM241 499q30 0 54 23t24 53q0 25 -16 40.5t-42 15.5q-31 0 -54.5 -23.5t-23.5 -53.5q0 -24 16 -39.5t42 -15.5z" />
<glyph unicode="&#xb1;" horiz-adv-x="619" d="M39 236v99h216v237h103v-237h216v-99h-216v-236h-103v236h-216zM52 -85h509v-98h-509v98z" />
<glyph unicode="&#xb2;" horiz-adv-x="390" d="M379 423h-315q0 51 19.5 92t49 65t63.5 45.5t63.5 36.5t49 35t19.5 43q0 20 -14.5 32t-36.5 12q-30 0 -63 -23q-13 -9 -27 -23l-56 60q24 24 43 37q53 37 111 37q59 0 100 -32.5t41 -89.5q0 -42 -23.5 -75.5t-58 -55t-70 -40t-64 -38.5t-34.5 -42h141l9 48h76z" />
<glyph unicode="&#xb3;" horiz-adv-x="384" d="M219 413q-67 0 -117 34q-21 14 -37 33l59 63q10 -11 24 -21q32 -22 71 -22q33 0 57.5 21.5t24.5 51.5q0 22 -19.5 34.5t-48.5 12.5h-31l-11 42l106 105q3 3 18 15q5 5 8 6v4l-10 -2q-14 -2 -22 -2h-76l-10 -51h-76l24 125h291l-12 -61l-123 -118q36 -9 62.5 -37.5 t26.5 -71.5q0 -62 -51.5 -111.5t-127.5 -49.5z" />
<glyph unicode="&#xb4;" horiz-adv-x="493" d="M56 757l134 136h143l-161 -136h-116z" />
<glyph unicode="&#xb5;" horiz-adv-x="611" d="M106 -74l-25 -126h-110l138 710h127l-58 -298q-5 -24 -5 -47q0 -61 64 -61q63 0 113 53t63 123l44 230h127l-99 -510h-123l9 46q7 32 8 34l5 15h-2q-22 -40 -75 -73.5t-115 -33.5q-47 0 -75 22h-2q0 -9 -2 -29q-1 -9 -3.5 -28t-3.5 -27z" />
<glyph unicode="&#xb6;" horiz-adv-x="627" d="M202 -50l57 291q-77 0 -136 59t-59 147q0 106 84 184.5t188 78.5h318l-21 -111h-212l-127 -649h-92zM356 -50l116 594h92l-115 -594h-93z" />
<glyph unicode="&#xb7;" horiz-adv-x="283" d="M65 227l25 129h123l-24 -129h-124z" />
<glyph unicode="&#xb8;" horiz-adv-x="493" d="M113 -100l61 125l56 -13l-2 -7l-28 -59q31 -2 52 -21t21 -49q0 -50 -43 -74.5t-97 -24.5q-27 0 -43 3q-4 1 -10.5 2.5t-7.5 1.5l12 62q2 0 6 -1.5t7 -2.5q12 -3 32 -3q56 0 56 34q0 27 -52 27h-20z" />
<glyph unicode="&#xb9;" horiz-adv-x="354" d="M64 423l15 76h101l40 207q1 4 2.5 12.5t3.5 12.5l4 10h-2l-7 -8q-8 -10 -17 -16l-43 -33l-45 61l146 117h83l-70 -363h101l-15 -76h-297z" />
<glyph unicode="&#xba;" horiz-adv-x="468" d="M257 384q-67 0 -109.5 39.5t-42.5 102.5q0 82 61 138t141 56q68 0 110.5 -39t42.5 -103q0 -81 -62 -137.5t-141 -56.5zM265 464q40 0 72 31t32 77q0 31 -19.5 50t-49.5 19q-40 0 -72 -31.5t-32 -76.5q0 -32 19 -50.5t50 -18.5zM66 266l14 68h322l-13 -68h-323z" />
<glyph unicode="&#xbb;" horiz-adv-x="603" d="M245 77l201 211l-128 200h116l129 -206l-191 -205h-127zM2 77l221 211l-128 200h116l129 -206l-210 -205h-128z" />
<glyph unicode="&#xbc;" horiz-adv-x="989" d="M745 0l21 102h-203l11 61l240 276h110l-51 -265h58l-13 -72h-59l-20 -102h-94zM668 174h111l26 130q1 6 8 31q4 9 5 16h-3l-9 -14q-12 -19 -20 -28l-118 -133v-2zM315 0h-98l473 710h98zM50 271l15 76h101l40 207q1 4 2.5 12.5t3.5 12.5l4 10h-2l-7 -8q-8 -10 -17 -16 l-43 -33l-45 61l146 117h83l-70 -363h101l-15 -76h-297z" />
<glyph unicode="&#xbd;" horiz-adv-x="976" d="M881 0h-315q1 51 21 92t49.5 65t63 46t62.5 36.5t48.5 34.5t19.5 43q0 20 -14.5 32t-36.5 12q-30 0 -63 -23q-13 -9 -27 -23l-56 60q24 24 43 37q53 37 111 37q59 0 100 -32.5t41 -89.5q0 -42 -23.5 -75.5t-58 -55t-70 -40t-64 -38.5t-34.5 -42h141l9 48h76zM312 0h-98 l473 710h98zM45 271l15 76h101l40 207q1 4 2.5 12.5t3.5 12.5l4 10h-2l-7 -8q-8 -10 -17 -16l-43 -33l-45 61l146 117h83l-70 -363h101l-15 -76h-297z" />
<glyph unicode="&#xbe;" horiz-adv-x="997" d="M750 0l21 102h-203l11 61l240 276h110l-51 -265h58l-13 -72h-59l-20 -102h-94zM673 174h111l26 130q1 6 8 31q4 9 5 16h-3l-9 -14q-12 -19 -20 -28l-118 -133v-2zM203 261q-67 0 -117 34q-21 14 -37 33l59 63q10 -11 24 -21q32 -22 71 -22q33 0 57.5 21.5t24.5 51.5 q0 22 -19.5 34.5t-48.5 12.5h-31l-11 42l106 105q3 3 18 15q5 5 8 6v4l-10 -2q-14 -2 -22 -2h-76l-10 -51h-76l24 125h291l-12 -61l-123 -118q36 -9 62.5 -37.5t26.5 -71.5q0 -62 -51.5 -111.5t-127.5 -49.5zM320 0h-98l473 710h98z" />
<glyph unicode="&#xbf;" horiz-adv-x="489" d="M238 391l23 119h123l-23 -119h-123zM-15 -42q0 49 22 89t54 67t65 50.5t59 50.5t31 55l7 35h122l-8 -44q-8 -43 -33.5 -78.5t-56 -59t-60 -45t-49 -47.5t-19.5 -56t22.5 -49.5t58.5 -19.5q40 0 80 21q24 14 35 22l57 -95q-28 -20 -55 -32q-70 -32 -135 -32 q-84 0 -140.5 45t-56.5 123z" />
<glyph unicode="&#xc0;" horiz-adv-x="726" d="M-46 0l19 98h64l332 612h148l95 -612h64l-19 -98h-262l19 98h70l-18 133h-224l-70 -133h70l-20 -98h-268zM292 333h163l-27 201q-2 13 -2 44v18h-3q-1 -8 -6 -18l-18 -44zM413 757l-107 136h132l82 -136h-107z" />
<glyph unicode="&#xc1;" horiz-adv-x="728" d="M-45 0l19 98h64l332 612h148l95 -612h64l-19 -98h-262l19 98h70l-18 133h-224l-70 -133h70l-20 -98h-268zM293 333h163l-27 201q-2 13 -2 44v18h-3q-2 -8 -6 -18l-18 -44zM378 757l134 136h143l-161 -136h-116z" />
<glyph unicode="&#xc2;" horiz-adv-x="728" d="M-45 0l19 98h64l332 612h148l95 -612h64l-19 -98h-262l19 98h70l-18 133h-224l-70 -133h70l-20 -98h-268zM293 333h163l-27 201q-2 13 -2 44v18h-3q-2 -8 -6 -18l-18 -44zM290 757l120 136h130l65 -136h-102l-34 81h-2l-66 -81h-111z" />
<glyph unicode="&#xc3;" horiz-adv-x="728" d="M-45 0l19 98h64l332 612h148l95 -612h64l-19 -98h-262l19 98h70l-18 133h-224l-70 -133h70l-20 -98h-268zM293 333h163l-27 201q-2 13 -2 44v18h-3q-2 -8 -6 -18l-18 -44zM366 758h-89q13 66 46 101.5t81 35.5q24 0 42 -10t26.5 -22t19.5 -22t24 -10q33 0 47 61h89 q-12 -65 -45.5 -101t-81.5 -36q-30 0 -50 16t-33.5 32t-28.5 16q-34 0 -47 -61z" />
<glyph unicode="&#xc4;" horiz-adv-x="728" d="M-45 0l19 98h64l332 612h148l95 -612h64l-19 -98h-262l19 98h70l-18 133h-224l-70 -133h70l-20 -98h-268zM293 333h163l-27 201q-2 13 -2 44v18h-3q-2 -8 -6 -18l-18 -44zM512 777l24 116h104l-24 -116h-104zM295 777l23 116h104l-24 -116h-103z" />
<glyph unicode="&#xc5;" horiz-adv-x="728" d="M-45 0l19 98h64l332 612h148l95 -612h64l-19 -98h-262l19 98h70l-18 133h-224l-70 -133h70l-20 -98h-268zM293 333h163l-27 201q-2 13 -2 44v18h-3q-2 -8 -6 -18l-18 -44zM453 742q-37 0 -62 18t-25 52q0 42 33.5 67.5t75.5 25.5q37 0 63 -19t26 -53q0 -42 -34 -66.5 t-77 -24.5zM457 787q19 0 31.5 12.5t12.5 32.5q0 28 -29 28q-18 0 -30.5 -13t-12.5 -33q0 -27 28 -27z" />
<glyph unicode="&#xc6;" horiz-adv-x="970" d="M-42 0l19 98h59l310 513h-72l19 99h694l-35 -183h-106l16 78h-202l-38 -195h231l-21 -105h-231l-39 -200h217l15 78h105l-35 -183h-537l19 98h84l41 209h-176l-123 -209h72l-19 -98h-267zM353 406h137l39 199h-57z" />
<glyph unicode="&#xc7;" horiz-adv-x="739" d="M260 -100l46 95q-117 18 -186 101.5t-69 203.5q0 173 127.5 297.5t301.5 124.5q38 0 81 -6.5t88.5 -21t70.5 -44t17 -68.5l-20 -98h-117l10 55q4 20 -8.5 35t-35 22t-44.5 10.5t-44 3.5q-124 0 -208 -92.5t-84 -210.5q0 -91 51.5 -149t143.5 -58q56 0 105.5 18t56.5 54 l10 53h119l-18 -91q-7 -40 -37.5 -70t-73.5 -45.5t-85.5 -23t-83.5 -7.5h-7l-20 -42q31 -2 51.5 -21t20.5 -49q0 -50 -43 -74.5t-96 -24.5q-26 0 -43 3q-4 1 -10.5 2.5t-7.5 1.5l12 62q2 0 6 -1.5t7 -2.5q12 -3 32 -3q56 0 56 34q0 27 -52 27h-20z" />
<glyph unicode="&#xc8;" horiz-adv-x="642" d="M-6 0l19 98h84l101 513h-86l19 99h527l-35 -183h-112l15 78h-199l-38 -195h234l-21 -105h-233l-39 -200h213l16 80h112l-36 -185h-541zM385 757l-107 136h132l82 -136h-107z" />
<glyph unicode="&#xc9;" horiz-adv-x="642" d="M348 757l134 136h143l-161 -136h-116zM-6 0l19 98h84l101 513h-86l19 99h527l-35 -183h-112l15 78h-199l-38 -195h234l-21 -105h-233l-39 -200h213l16 80h112l-36 -185h-541z" />
<glyph unicode="&#xca;" horiz-adv-x="642" d="M260 757l120 136h130l65 -136h-102l-34 81h-2l-66 -81h-111zM-6 0l19 98h84l101 513h-86l19 99h527l-35 -183h-112l15 78h-199l-38 -195h234l-21 -105h-233l-39 -200h213l16 80h112l-36 -185h-541z" />
<glyph unicode="&#xcb;" horiz-adv-x="642" d="M483 777l24 116h104l-24 -116h-104zM266 777l23 116h104l-24 -116h-103zM-6 0l19 98h84l101 513h-86l19 99h527l-35 -183h-112l15 78h-199l-38 -195h234l-21 -105h-233l-39 -200h213l16 80h112l-36 -185h-541z" />
<glyph unicode="&#xcc;" horiz-adv-x="405" d="M-6 0l19 98h84l100 513h-85l19 99h302l-19 -99h-86l-100 -513h85l-19 -98h-300zM252 757l-107 136h132l82 -136h-107z" />
<glyph unicode="&#xcd;" horiz-adv-x="405" d="M-6 0l19 98h84l100 513h-85l19 99h302l-19 -99h-86l-100 -513h85l-19 -98h-300zM215 757l134 136h143l-161 -136h-116z" />
<glyph unicode="&#xce;" horiz-adv-x="405" d="M-6 0l19 98h84l100 513h-85l19 99h302l-19 -99h-86l-100 -513h85l-19 -98h-300zM127 757l120 136h130l65 -136h-102l-34 81h-2l-66 -81h-111z" />
<glyph unicode="&#xcf;" horiz-adv-x="405" d="M-6 0l19 98h84l100 513h-85l19 99h302l-19 -99h-86l-100 -513h85l-19 -98h-300zM350 777l24 116h104l-24 -116h-104zM133 777l23 116h104l-24 -116h-103z" />
<glyph unicode="&#xd0;" horiz-adv-x="785" d="M-6 0l19 98h84l40 203h-74l20 105h74l40 205h-85l19 99h306q150 0 234.5 -73.5t84.5 -205.5q0 -181 -118 -306t-300 -125h-344zM229 105h104q127 0 209 90.5t82 224.5q0 90 -51 137.5t-143 47.5h-103l-39 -199h138l-20 -105h-138z" />
<glyph unicode="&#xd1;" horiz-adv-x="848" d="M-6 0l19 98h84l101 513h-86l19 99h213l211 -462q3 -6 11 -37q2 -8 4 -20h3q0 8 2 22l3 21t4 20l70 357h-88l19 99h304l-19 -99h-85l-119 -611h-128l-213 462q-3 6 -11 37q-2 7 -4 19h-3l-2 -22q-2 -29 -5 -41l-70 -357h88l-19 -98h-303zM430 758h-89q13 66 46 101.5 t81 35.5q24 0 42 -10t26.5 -22t19.5 -22t24 -10q33 0 47 61h89q-12 -65 -45.5 -101t-81.5 -36q-30 0 -50 16t-33.5 32t-28.5 16q-34 0 -47 -61z" />
<glyph unicode="&#xd2;" horiz-adv-x="821" d="M50 300q0 112 59.5 209.5t158.5 155t210 57.5q139 0 227 -86t88 -219q0 -113 -60 -212.5t-159.5 -158t-209.5 -58.5q-139 0 -226.5 88t-87.5 224zM182 307q0 -90 53 -147t138 -57q109 0 198 91t89 215q0 88 -53 143t-138 55q-111 0 -199 -89t-88 -211zM461 757l-107 136 h132l82 -136h-107z" />
<glyph unicode="&#xd3;" horiz-adv-x="821" d="M425 757l134 136h143l-161 -136h-116zM50 300q0 112 59.5 209.5t158.5 155t210 57.5q139 0 227 -86t88 -219q0 -113 -60 -212.5t-159.5 -158t-209.5 -58.5q-139 0 -226.5 88t-87.5 224zM182 307q0 -90 53 -147t138 -57q109 0 198 91t89 215q0 88 -53 143t-138 55 q-111 0 -199 -89t-88 -211z" />
<glyph unicode="&#xd4;" horiz-adv-x="821" d="M337 757l120 136h130l65 -136h-102l-34 81h-2l-66 -81h-111zM50 300q0 112 59.5 209.5t158.5 155t210 57.5q139 0 227 -86t88 -219q0 -113 -60 -212.5t-159.5 -158t-209.5 -58.5q-139 0 -226.5 88t-87.5 224zM182 307q0 -90 53 -147t138 -57q109 0 198 91t89 215 q0 88 -53 143t-138 55q-111 0 -199 -89t-88 -211z" />
<glyph unicode="&#xd5;" horiz-adv-x="821" d="M50 300q0 112 59.5 209.5t158.5 155t210 57.5q139 0 227 -86t88 -219q0 -113 -60 -212.5t-159.5 -158t-209.5 -58.5q-139 0 -226.5 88t-87.5 224zM182 307q0 -90 53 -147t138 -57q109 0 198 91t89 215q0 88 -53 143t-138 55q-111 0 -199 -89t-88 -211zM413 758h-89 q13 66 46 101.5t81 35.5q24 0 42 -10t26.5 -22t19.5 -22t24 -10q33 0 47 61h89q-12 -65 -45.5 -101t-81.5 -36q-30 0 -50 16t-33.5 32t-28.5 16q-34 0 -47 -61z" />
<glyph unicode="&#xd6;" horiz-adv-x="821" d="M559 777l24 116h104l-24 -116h-104zM342 777l23 116h104l-24 -116h-103zM50 300q0 112 59.5 209.5t158.5 155t210 57.5q139 0 227 -86t88 -219q0 -113 -60 -212.5t-159.5 -158t-209.5 -58.5q-139 0 -226.5 88t-87.5 224zM182 307q0 -90 53 -147t138 -57q109 0 198 91 t89 215q0 88 -53 143t-138 55q-111 0 -199 -89t-88 -211z" />
<glyph unicode="&#xd7;" horiz-adv-x="619" d="M43 69l197 217l-197 216l69 70l195 -214l195 214l69 -70l-198 -216l198 -217l-69 -69l-195 214l-195 -214z" />
<glyph unicode="&#xd8;" horiz-adv-x="822" d="M58 17l68 74q-75 86 -75 209q0 111 59.5 209t157 155.5t204.5 57.5t189 -52l61 66l53 -43l-61 -66q81 -83 81 -210q0 -85 -36 -164.5t-94 -137t-135 -92.5t-156 -35q-118 0 -197 57l-66 -71zM218 190l355 386q-46 28 -102 28q-112 0 -199.5 -88t-87.5 -209q0 -70 34 -117 zM624 529l-360 -390q46 -33 111 -33q109 0 198 90t89 213q0 71 -38 120z" />
<glyph unicode="&#xd9;" horiz-adv-x="811" d="M102 201q0 36 11 85l63 325h-85l19 99h301l-19 -99h-85l-63 -325q-9 -52 -9 -69q0 -54 34.5 -84t97.5 -30q80 0 127 44q45 39 59 110l69 354h-85l19 99h301l-19 -99h-85l-71 -361q-26 -142 -128 -209q-79 -53 -190 -53q-114 0 -188 56.5t-74 156.5zM455 757l-107 136h132 l82 -136h-107z" />
<glyph unicode="&#xda;" horiz-adv-x="811" d="M419 757l134 136h143l-161 -136h-116zM102 201q0 36 11 85l63 325h-85l19 99h301l-19 -99h-85l-63 -325q-9 -52 -9 -69q0 -54 34.5 -84t97.5 -30q80 0 127 44q45 39 59 110l69 354h-85l19 99h301l-19 -99h-85l-71 -361q-26 -142 -128 -209q-79 -53 -190 -53 q-114 0 -188 56.5t-74 156.5z" />
<glyph unicode="&#xdb;" horiz-adv-x="811" d="M331 757l120 136h130l65 -136h-102l-34 81h-2l-66 -81h-111zM102 201q0 36 11 85l63 325h-85l19 99h301l-19 -99h-85l-63 -325q-9 -52 -9 -69q0 -54 34.5 -84t97.5 -30q80 0 127 44q45 39 59 110l69 354h-85l19 99h301l-19 -99h-85l-71 -361q-26 -142 -128 -209 q-79 -53 -190 -53q-114 0 -188 56.5t-74 156.5z" />
<glyph unicode="&#xdc;" horiz-adv-x="811" d="M554 777l24 116h104l-24 -116h-104zM337 777l23 116h104l-24 -116h-103zM102 201q0 36 11 85l63 325h-85l19 99h301l-19 -99h-85l-63 -325q-9 -52 -9 -69q0 -54 34.5 -84t97.5 -30q80 0 127 44q45 39 59 110l69 354h-85l19 99h301l-19 -99h-85l-71 -361 q-26 -142 -128 -209q-79 -53 -190 -53q-114 0 -188 56.5t-74 156.5z" />
<glyph unicode="&#xdd;" horiz-adv-x="658" d="M120 0l19 98h85l39 199l-128 314h-64l19 99h258l-19 -99h-68l71 -186q1 -4 3 -11t4 -11q2 -6 2 -10h2q2 6 6 10q6 11 16 22l145 186h-69l19 99h268l-19 -99h-64l-251 -314l-39 -199h86l-19 -98h-302zM346 757l134 136h143l-161 -136h-116z" />
<glyph unicode="&#xde;" horiz-adv-x="662" d="M-6 0l19 98h84l101 513h-86l19 99h302l-19 -99h-88l-12 -61h151q89 0 138.5 -43t49.5 -116q0 -99 -72 -158.5t-182 -59.5h-158l-15 -75h88l-19 -98h-301zM259 271h126q62 0 98.5 29.5t36.5 84.5q0 67 -98 67h-127z" />
<glyph unicode="&#xdf;" horiz-adv-x="617" d="M22 0l104 538q17 86 89 135t159 49q84 0 138.5 -42.5t54.5 -110.5q0 -40 -19.5 -72.5t-43 -50t-43 -39t-19.5 -41.5t19 -42t41.5 -40.5t41.5 -49t19 -64.5q0 -74 -60 -125.5t-139 -51.5q-62 0 -107 13q-23 6 -37 13l22 105q16 -7 30 -11q33 -12 81 -12q32 0 57.5 16.5 t25.5 51.5q0 23 -19.5 46.5t-42.5 41.5t-42.5 44.5t-19.5 55.5q0 34 20 64.5t43.5 49t43.5 42t20 45.5q0 24 -18 40t-52 16q-43 0 -76.5 -23.5t-42.5 -70.5l-101 -520h-127z" />
<glyph unicode="&#xe0;" d="M-5 119q0 55 33 95.5t86.5 61t108 30t110.5 9.5h18l3 16q3 13 3 26q0 63 -81 63q-48 0 -104 -23q-26 -11 -48 -24l-29 94q27 16 61 28q70 27 144 27q77 0 130 -36.5t53 -114.5q0 -31 -21 -124t-21 -113q0 -41 43 -41q12 0 16 1q3 1 6 1l-18 -95q-2 -1 -6.5 -1.5 t-6.5 -0.5q-9 -1 -40 -1q-109 0 -119 86h-2q0 -1 -7 -10t-22.5 -23.5t-35 -28t-48.5 -23.5t-60 -10q-62 0 -104 34t-42 97zM121 140q0 -58 63 -58q49 0 92 44.5t56 95.5l4 16h-22q-28 0 -55.5 -3.5t-61.5 -12.5t-55 -30t-21 -52zM282 573l-107 136h132l82 -136h-107z" />
<glyph unicode="&#xe1;" d="M-5 119q0 55 33 95.5t86.5 61t108 30t110.5 9.5h18l3 16q3 13 3 26q0 63 -81 63q-48 0 -104 -23q-26 -11 -48 -24l-29 94q27 16 61 28q70 27 144 27q77 0 130 -36.5t53 -114.5q0 -31 -21 -124t-21 -113q0 -41 43 -41q12 0 16 1q3 1 6 1l-18 -95q-2 -1 -6.5 -1.5 t-6.5 -0.5q-9 -1 -40 -1q-109 0 -119 86h-2q0 -1 -7 -10t-22.5 -23.5t-35 -28t-48.5 -23.5t-60 -10q-62 0 -104 34t-42 97zM121 140q0 -58 63 -58q49 0 92 44.5t56 95.5l4 16h-22q-28 0 -55.5 -3.5t-61.5 -12.5t-55 -30t-21 -52zM246 573l134 136h143l-161 -136h-116z" />
<glyph unicode="&#xe2;" d="M-5 119q0 55 33 95.5t86.5 61t108 30t110.5 9.5h18l3 16q3 13 3 26q0 63 -81 63q-48 0 -104 -23q-26 -11 -48 -24l-29 94q27 16 61 28q70 27 144 27q77 0 130 -36.5t53 -114.5q0 -31 -21 -124t-21 -113q0 -41 43 -41q12 0 16 1q3 1 6 1l-18 -95q-2 -1 -6.5 -1.5 t-6.5 -0.5q-9 -1 -40 -1q-109 0 -119 86h-2q0 -1 -7 -10t-22.5 -23.5t-35 -28t-48.5 -23.5t-60 -10q-62 0 -104 34t-42 97zM121 140q0 -58 63 -58q49 0 92 44.5t56 95.5l4 16h-22q-28 0 -55.5 -3.5t-61.5 -12.5t-55 -30t-21 -52zM158 573l120 136h130l65 -136h-102l-34 81 h-2l-66 -81h-111z" />
<glyph unicode="&#xe3;" d="M-5 119q0 55 33 95.5t86.5 61t108 30t110.5 9.5h18l3 16q3 13 3 26q0 63 -81 63q-48 0 -104 -23q-26 -11 -48 -24l-29 94q27 16 61 28q70 27 144 27q77 0 130 -36.5t53 -114.5q0 -31 -21 -124t-21 -113q0 -41 43 -41q12 0 16 1q3 1 6 1l-18 -95q-2 -1 -6.5 -1.5 t-6.5 -0.5q-9 -1 -40 -1q-109 0 -119 86h-2q0 -1 -7 -10t-22.5 -23.5t-35 -28t-48.5 -23.5t-60 -10q-62 0 -104 34t-42 97zM121 140q0 -58 63 -58q49 0 92 44.5t56 95.5l4 16h-22q-28 0 -55.5 -3.5t-61.5 -12.5t-55 -30t-21 -52zM235 574h-89q13 66 46 101.5t81 35.5 q24 0 42 -10t26.5 -22t19.5 -22t24 -10q33 0 47 61h89q-12 -65 -45.5 -101t-81.5 -36q-30 0 -50 16t-33.5 32t-28.5 16q-34 0 -47 -61z" />
<glyph unicode="&#xe4;" d="M-5 119q0 55 33 95.5t86.5 61t108 30t110.5 9.5h18l3 16q3 13 3 26q0 63 -81 63q-48 0 -104 -23q-26 -11 -48 -24l-29 94q27 16 61 28q70 27 144 27q77 0 130 -36.5t53 -114.5q0 -31 -21 -124t-21 -113q0 -41 43 -41q12 0 16 1q3 1 6 1l-18 -95q-2 -1 -6.5 -1.5 t-6.5 -0.5q-9 -1 -40 -1q-109 0 -119 86h-2q0 -1 -7 -10t-22.5 -23.5t-35 -28t-48.5 -23.5t-60 -10q-62 0 -104 34t-42 97zM121 140q0 -58 63 -58q49 0 92 44.5t56 95.5l4 16h-22q-28 0 -55.5 -3.5t-61.5 -12.5t-55 -30t-21 -52zM381 593l24 116h104l-24 -116h-104zM164 593 l23 116h104l-24 -116h-103z" />
<glyph unicode="&#xe5;" d="M-5 119q0 55 33 95.5t86.5 61t108 30t110.5 9.5h18l3 16q3 13 3 26q0 63 -81 63q-48 0 -104 -23q-26 -11 -48 -24l-29 94q27 16 61 28q70 27 144 27q77 0 130 -36.5t53 -114.5q0 -31 -21 -124t-21 -113q0 -41 43 -41q12 0 16 1q3 1 6 1l-18 -95q-2 -1 -6.5 -1.5 t-6.5 -0.5q-9 -1 -40 -1q-109 0 -119 86h-2q0 -1 -7 -10t-22.5 -23.5t-35 -28t-48.5 -23.5t-60 -10q-62 0 -104 34t-42 97zM121 140q0 -58 63 -58q49 0 92 44.5t56 95.5l4 16h-22q-28 0 -55.5 -3.5t-61.5 -12.5t-55 -30t-21 -52zM322 558q-37 0 -62 18t-25 52 q0 42 33.5 67.5t75.5 25.5q37 0 63 -19t26 -53q0 -42 -34 -66.5t-77 -24.5zM326 603q19 0 31.5 12.5t12.5 32.5q0 28 -29 28q-18 0 -30.5 -13t-12.5 -33q0 -27 28 -27z" />
<glyph unicode="&#xe6;" horiz-adv-x="858" d="M-2 125q0 45 22 80t55 55t77.5 32.5t83 16.5t78.5 4h36q4 20 4 38q0 69 -83 69q-53 0 -105 -23q-23 -10 -43 -24l-31 94q25 15 60 28q67 27 141 27q105 0 150 -73h2q75 73 174 73q100 0 152 -52t52 -142q0 -23 -8 -61q-1 -3 -3.5 -14t-4.5 -16h-348q0 -5 -1 -8 q-2 -14 -2 -18q0 -55 33.5 -87t92.5 -32q55 0 109 28q28 13 47 28l34 -93q-26 -18 -57 -33q-72 -34 -142 -34q-154 0 -211 111h-2q-6 -12 -18.5 -27t-36 -36t-61.5 -34.5t-83 -13.5q-68 0 -115.5 37.5t-47.5 99.5zM477 313h220q1 3 1 9v19q0 40 -22.5 61.5t-58.5 21.5 q-48 0 -85 -29.5t-55 -81.5zM126 140q0 -23 17 -38t49 -15q48 0 89 42t52 92l3 15h-35q-26 0 -51.5 -3.5t-56 -12.5t-49 -29.5t-18.5 -50.5z" />
<glyph unicode="&#xe7;" horiz-adv-x="565" d="M159 -100l46 96q-86 17 -134 75.5t-48 142.5q0 121 94.5 214.5t232.5 93.5q33 0 66 -6.5t64.5 -20t48.5 -40t10 -61.5l-12 -64h-110l7 32q4 24 -22 38t-63 14q-77 0 -132 -57.5t-55 -133.5q0 -57 35 -92.5t101 -35.5q59 0 121 32q27 14 49 32l34 -96q-25 -21 -56 -37 q-74 -38 -160 -38h-11l-19 -42q31 -2 51.5 -21t20.5 -49q0 -50 -43 -74.5t-97 -24.5q-26 0 -42 3q-4 1 -10.5 2.5t-7.5 1.5l12 62q2 0 6 -1.5t7 -2.5q12 -3 32 -3q56 0 56 34q0 27 -52 27h-20z" />
<glyph unicode="&#xe8;" horiz-adv-x="558" d="M24 207q0 131 85 223t211 92q99 0 151 -53t52 -140q0 -24 -8 -62l-9 -30h-351q0 -5 -1 -8q-2 -14 -2 -18q0 -52 34 -84t94 -32q56 0 110 28q27 13 48 28l34 -96q-23 -17 -58 -33q-72 -34 -142 -34q-116 0 -182 62t-66 157zM172 312h224q0 7 1 10q1 7 1 18q0 39 -22 61.5 t-59 22.5q-48 0 -87 -30.5t-58 -81.5zM308 573l-107 136h132l82 -136h-107z" />
<glyph unicode="&#xe9;" horiz-adv-x="558" d="M272 573l134 136h143l-161 -136h-116zM24 207q0 131 85 223t211 92q99 0 151 -53t52 -140q0 -24 -8 -62l-9 -30h-351q0 -5 -1 -8q-2 -14 -2 -18q0 -52 34 -84t94 -32q56 0 110 28q27 13 48 28l34 -96q-23 -17 -58 -33q-72 -34 -142 -34q-116 0 -182 62t-66 157zM172 312 h224q0 7 1 10q1 7 1 18q0 39 -22 61.5t-59 22.5q-48 0 -87 -30.5t-58 -81.5z" />
<glyph unicode="&#xea;" horiz-adv-x="558" d="M184 573l120 136h130l65 -136h-102l-34 81h-2l-66 -81h-111zM24 207q0 131 85 223t211 92q99 0 151 -53t52 -140q0 -24 -8 -62l-9 -30h-351q0 -5 -1 -8q-2 -14 -2 -18q0 -52 34 -84t94 -32q56 0 110 28q27 13 48 28l34 -96q-23 -17 -58 -33q-72 -34 -142 -34 q-116 0 -182 62t-66 157zM172 312h224q0 7 1 10q1 7 1 18q0 39 -22 61.5t-59 22.5q-48 0 -87 -30.5t-58 -81.5z" />
<glyph unicode="&#xeb;" horiz-adv-x="558" d="M407 593l24 116h104l-24 -116h-104zM190 593l23 116h104l-24 -116h-103zM24 207q0 131 85 223t211 92q99 0 151 -53t52 -140q0 -24 -8 -62l-9 -30h-351q0 -5 -1 -8q-2 -14 -2 -18q0 -52 34 -84t94 -32q56 0 110 28q27 13 48 28l34 -96q-23 -17 -58 -33q-72 -34 -142 -34 q-116 0 -182 62t-66 157zM172 312h224q0 7 1 10q1 7 1 18q0 39 -22 61.5t-59 22.5q-48 0 -87 -30.5t-58 -81.5z" />
<glyph unicode="&#xec;" horiz-adv-x="338" d="M71 103q0 22 6 52l51 260h-79l19 95h205l-67 -345q-4 -15 -4 -31q0 -41 43 -41q12 0 16 1q3 1 6 1l-18 -95l-14 -2q-9 -1 -31 -1q-28 0 -47.5 3t-41 13t-33 32.5t-11.5 57.5zM184 573l-107 136h132l82 -136h-107z" />
<glyph unicode="&#xed;" horiz-adv-x="338" d="M148 573l134 136h143l-161 -136h-116zM71 103q0 22 6 52l51 260h-79l19 95h205l-67 -345q-4 -15 -4 -31q0 -41 43 -41q12 0 16 1q3 1 6 1l-18 -95l-14 -2q-9 -1 -31 -1q-28 0 -47.5 3t-41 13t-33 32.5t-11.5 57.5z" />
<glyph unicode="&#xee;" horiz-adv-x="338" d="M60 573l120 136h130l65 -136h-102l-34 81h-2l-66 -81h-111zM71 103q0 22 6 52l51 260h-79l19 95h205l-67 -345q-4 -15 -4 -31q0 -41 43 -41q12 0 16 1q3 1 6 1l-18 -95l-14 -2q-9 -1 -31 -1q-28 0 -47.5 3t-41 13t-33 32.5t-11.5 57.5z" />
<glyph unicode="&#xef;" horiz-adv-x="338" d="M71 103q0 22 6 52l51 260h-79l19 95h205l-67 -345q-4 -15 -4 -31q0 -41 43 -41q12 0 16 1q3 1 6 1l-18 -95l-14 -2q-9 -1 -31 -1q-28 0 -47.5 3t-41 13t-33 32.5t-11.5 57.5zM269 593l23 117h104l-23 -117h-104zM79 593l24 117h104l-24 -117h-104z" />
<glyph unicode="&#xf0;" horiz-adv-x="596" d="M22 195q0 105 78.5 187.5t202.5 82.5q41 0 77 -17q15 -7 27 -17h2q-17 69 -80 119l-198 -78l7 64l132 52q-59 32 -116 46l52 92q115 -31 196 -88l163 64l-6 -64l-110 -43q97 -99 97 -246q0 -44 -10 -91t-33.5 -95.5t-57.5 -87t-86 -63t-114 -24.5q-107 0 -165 59t-58 148 zM151 197q0 -45 23.5 -73.5t71.5 -28.5q70 0 116 59t46 125q0 40 -26 63.5t-73 23.5q-70 0 -114 -50t-44 -119z" />
<glyph unicode="&#xf1;" horiz-adv-x="683" d="M51 0l77 393q3 22 -18 22h-57l18 95h134q57 0 57 -45q0 -30 -12 -57h2q12 29 68 71.5t135 42.5q67 0 105 -35t38 -103q0 -34 -20.5 -133t-20.5 -117q0 -41 43 -41q12 0 16 1q3 1 6 1l-18 -95q-2 -1 -6.5 -1.5t-6.5 -0.5q-9 -1 -38 -1q-24 0 -42.5 3t-39.5 13t-32.5 32.5 t-11.5 56.5q0 28 19.5 125t19.5 118q0 61 -65 61q-64 0 -114 -53.5t-65 -128.5l-44 -224h-127zM323 574h-89q13 66 46 101.5t81 35.5q24 0 42 -10t26.5 -22t19.5 -22t24 -10q33 0 47 61h89q-12 -65 -45.5 -101t-81.5 -36q-30 0 -50 16t-33.5 32t-28.5 16q-34 0 -47 -61z" />
<glyph unicode="&#xf2;" horiz-adv-x="629" d="M23 214q0 130 97.5 219t226.5 89q106 0 174 -63t68 -162q0 -131 -98 -220t-226 -89q-106 0 -174 62.5t-68 163.5zM152 220q0 -56 34 -90t89 -34q71 0 128 56t57 137q0 57 -34 91t-89 34q-71 0 -128 -56.5t-57 -137.5zM331 573l-107 136h132l82 -136h-107z" />
<glyph unicode="&#xf3;" horiz-adv-x="629" d="M294 573l134 136h143l-161 -136h-116zM23 214q0 130 97.5 219t226.5 89q106 0 174 -63t68 -162q0 -131 -98 -220t-226 -89q-106 0 -174 62.5t-68 163.5zM152 220q0 -56 34 -90t89 -34q71 0 128 56t57 137q0 57 -34 91t-89 34q-71 0 -128 -56.5t-57 -137.5z" />
<glyph unicode="&#xf4;" horiz-adv-x="629" d="M206 573l120 136h130l65 -136h-102l-34 81h-2l-66 -81h-111zM23 214q0 130 97.5 219t226.5 89q106 0 174 -63t68 -162q0 -131 -98 -220t-226 -89q-106 0 -174 62.5t-68 163.5zM152 220q0 -56 34 -90t89 -34q71 0 128 56t57 137q0 57 -34 91t-89 34q-71 0 -128 -56.5 t-57 -137.5z" />
<glyph unicode="&#xf5;" horiz-adv-x="629" d="M23 214q0 130 97.5 219t226.5 89q106 0 174 -63t68 -162q0 -131 -98 -220t-226 -89q-106 0 -174 62.5t-68 163.5zM152 220q0 -56 34 -90t89 -34q71 0 128 56t57 137q0 57 -34 91t-89 34q-71 0 -128 -56.5t-57 -137.5zM283 574h-89q13 66 46 101.5t81 35.5q24 0 42 -10 t26.5 -22t19.5 -22t24 -10q33 0 47 61h89q-12 -65 -45.5 -101t-81.5 -36q-30 0 -50 16t-33.5 32t-28.5 16q-34 0 -47 -61z" />
<glyph unicode="&#xf6;" horiz-adv-x="629" d="M429 593l24 116h104l-24 -116h-104zM212 593l23 116h104l-24 -116h-103zM23 214q0 130 97.5 219t226.5 89q106 0 174 -63t68 -162q0 -131 -98 -220t-226 -89q-106 0 -174 62.5t-68 163.5zM152 220q0 -56 34 -90t89 -34q71 0 128 56t57 137q0 57 -34 91t-89 34 q-71 0 -128 -56.5t-57 -137.5z" />
<glyph unicode="&#xf7;" horiz-adv-x="619" d="M249 437v108h114v-108h-114zM45 236v99h522v-99h-522zM249 27v108h114v-108h-114z" />
<glyph unicode="&#xf8;" horiz-adv-x="629" d="M33 -1l53 57q-63 65 -63 158q0 129 96 218.5t219 89.5q82 0 145 -37l57 61l46 -39l-56 -60q59 -66 59 -150q0 -130 -96.5 -219.5t-218.5 -89.5q-76 0 -138 32l-58 -61zM174 150l228 247q-29 17 -65 17q-71 0 -128 -56.5t-57 -137.5q0 -38 22 -70zM441 351l-223 -242 q24 -13 57 -13q71 0 128 56t57 137q0 33 -19 62z" />
<glyph unicode="&#xf9;" horiz-adv-x="679" d="M71 125q0 21 7 61l44 229h-79l19 95h206l-59 -302q-6 -34 -6 -47q0 -60 64 -60q63 0 113 55t63 124l26 135h-79l19 95h206l-68 -345q-3 -15 -3 -31q0 -41 43 -41q12 0 15 1t6 1l-18 -95l-15 -2q-11 -1 -39 -1q-116 0 -116 105h-2q-77 -114 -200 -114q-64 0 -105.5 34.5 t-41.5 102.5zM335 573l-107 136h132l82 -136h-107z" />
<glyph unicode="&#xfa;" horiz-adv-x="679" d="M299 573l134 136h143l-161 -136h-116zM71 125q0 21 7 61l44 229h-79l19 95h206l-59 -302q-6 -34 -6 -47q0 -60 64 -60q63 0 113 55t63 124l26 135h-79l19 95h206l-68 -345q-3 -15 -3 -31q0 -41 43 -41q12 0 15 1t6 1l-18 -95l-15 -2q-11 -1 -39 -1q-116 0 -116 105h-2 q-77 -114 -200 -114q-64 0 -105.5 34.5t-41.5 102.5z" />
<glyph unicode="&#xfb;" horiz-adv-x="679" d="M211 573l120 136h130l65 -136h-102l-34 81h-2l-66 -81h-111zM71 125q0 21 7 61l44 229h-79l19 95h206l-59 -302q-6 -34 -6 -47q0 -60 64 -60q63 0 113 55t63 124l26 135h-79l19 95h206l-68 -345q-3 -15 -3 -31q0 -41 43 -41q12 0 15 1t6 1l-18 -95l-15 -2q-11 -1 -39 -1 q-116 0 -116 105h-2q-77 -114 -200 -114q-64 0 -105.5 34.5t-41.5 102.5z" />
<glyph unicode="&#xfc;" horiz-adv-x="679" d="M433 593l24 116h104l-24 -116h-104zM216 593l23 116h104l-24 -116h-103zM71 125q0 21 7 61l44 229h-79l19 95h206l-59 -302q-6 -34 -6 -47q0 -60 64 -60q63 0 113 55t63 124l26 135h-79l19 95h206l-68 -345q-3 -15 -3 -31q0 -41 43 -41q12 0 15 1t6 1l-18 -95l-15 -2 q-11 -1 -39 -1q-116 0 -116 105h-2q-77 -114 -200 -114q-64 0 -105.5 34.5t-41.5 102.5z" />
<glyph unicode="&#xfd;" horiz-adv-x="606" d="M-68 -173l57 89q8 -6 19 -11q19 -11 54 -11q64 0 101 59l20 32l-91 430h-61l18 95h247l-18 -95h-60l43 -258q4 -15 2 -36l-2 -17h3l7 17q7 18 17 36l143 258h-59l19 95h244l-18 -95h-59l-281 -481q-85 -144 -218 -144q-48 0 -94 18q-17 7 -33 19zM281 573l134 136h143 l-161 -136h-116z" />
<glyph unicode="&#xfe;" horiz-adv-x="625" d="M-17 -200l158 815h-78l18 95h204l-44 -225q-2 -16 -6 -26l-4 -11h2q60 74 156 74q92 0 143 -57.5t51 -157.5q0 -137 -84 -228t-194 -91q-45 0 -85 19t-60 56h-2l-2 -13q-3 -25 -5 -33l-43 -217h-125zM190 210q0 -50 25.5 -82.5t74.5 -32.5q62 0 112.5 56t50.5 147 q0 54 -26 84.5t-74 30.5q-64 0 -113.5 -60.5t-49.5 -142.5z" />
<glyph unicode="&#xff;" horiz-adv-x="606" d="M-68 -173l57 89q8 -6 19 -11q19 -11 54 -11q64 0 101 59l20 32l-91 430h-61l18 95h247l-18 -95h-60l43 -258q4 -15 2 -36l-2 -17h3l7 17q7 18 17 36l143 258h-59l19 95h244l-18 -95h-59l-281 -481q-85 -144 -218 -144q-48 0 -94 18q-17 7 -33 19zM416 593l24 116h104 l-24 -116h-104zM199 593l23 116h104l-24 -116h-103z" />
<glyph unicode="&#x152;" horiz-adv-x="991" d="M50 298q0 112 60 209.5t157.5 154t205.5 56.5q39 0 84 -4t67 -4h384l-36 -183h-106l16 78h-202l-39 -196h231l-21 -104h-230l-39 -200h217l15 78h106l-36 -183h-385q-17 0 -57.5 -4.5t-70.5 -4.5q-143 0 -232 86t-89 221zM183 300q0 -89 54 -145t142 -56q35 0 52 4l21 3 l96 497l-19 4q-16 4 -50 4q-118 0 -207 -92t-89 -219z" />
<glyph unicode="&#x153;" horiz-adv-x="989" d="M24 214q0 130 95 219t222 89q132 0 198 -105h2q84 105 210 105q99 0 151 -53t52 -140q0 -25 -8 -63l-9 -30h-351q0 -5 -1 -8t-1 -18q0 -51 33.5 -82.5t93.5 -31.5q56 0 110 28q27 13 48 28l34 -97q-25 -18 -57 -33q-72 -34 -142 -34q-146 0 -204 107h-2 q-93 -107 -225 -107q-110 0 -179.5 62.5t-69.5 163.5zM604 313h224q0 6 1 9q1 5 1 18q0 39 -22 61.5t-59 22.5q-49 0 -87.5 -30t-57.5 -81zM153 220q0 -56 34 -90t89 -34q71 0 128 56t57 137q0 57 -34.5 91t-88.5 34q-74 0 -129.5 -56t-55.5 -138z" />
<glyph unicode="&#x178;" horiz-adv-x="658" d="M120 0l19 98h85l39 199l-128 314h-64l19 99h258l-19 -99h-68l71 -186q1 -4 3 -11t4 -11q2 -6 2 -10h2q2 6 6 10q6 11 16 22l145 186h-69l19 99h268l-19 -99h-64l-251 -314l-39 -199h86l-19 -98h-302zM481 777l24 116h104l-24 -116h-104zM264 777l23 116h104l-24 -116 h-103z" />
<glyph unicode="&#x2c6;" horiz-adv-x="494" d="M17 757l120 136h130l65 -136h-102l-34 81h-2l-66 -81h-111z" />
<glyph unicode="&#x2dc;" horiz-adv-x="493" d="M91 758h-89q13 66 46 101.5t81 35.5q24 0 42 -10t26.5 -22t19.5 -22t24 -10q33 0 47 61h89q-12 -65 -45.5 -101t-81.5 -36q-30 0 -50 16t-33.5 32t-28.5 16q-34 0 -47 -61z" />
<glyph unicode="&#x2000;" horiz-adv-x="452" />
<glyph unicode="&#x2001;" horiz-adv-x="905" />
<glyph unicode="&#x2002;" horiz-adv-x="452" />
<glyph unicode="&#x2003;" horiz-adv-x="905" />
<glyph unicode="&#x2004;" horiz-adv-x="301" />
<glyph unicode="&#x2005;" horiz-adv-x="226" />
<glyph unicode="&#x2006;" horiz-adv-x="150" />
<glyph unicode="&#x2007;" horiz-adv-x="150" />
<glyph unicode="&#x2008;" horiz-adv-x="113" />
<glyph unicode="&#x2009;" horiz-adv-x="181" />
<glyph unicode="&#x200a;" horiz-adv-x="50" />
<glyph unicode="&#x2010;" horiz-adv-x="466" d="M69 230l21 111h301l-21 -111h-301z" />
<glyph unicode="&#x2011;" horiz-adv-x="466" d="M69 230l21 111h301l-21 -111h-301z" />
<glyph unicode="&#x2012;" horiz-adv-x="466" d="M69 230l21 111h301l-21 -111h-301z" />
<glyph unicode="&#x2013;" horiz-adv-x="719" d="M70 236l19 99h553l-18 -99h-554z" />
<glyph unicode="&#x2014;" horiz-adv-x="919" d="M70 236l19 99h753l-18 -99h-754z" />
<glyph unicode="&#x2018;" horiz-adv-x="248" d="M78 490l122 232h94l-94 -232h-122z" />
<glyph unicode="&#x2019;" horiz-adv-x="243" d="M83 490l94 232h122l-122 -232h-94z" />
<glyph unicode="&#x201a;" horiz-adv-x="271" d="M-41 -103l95 232h122l-122 -232h-95z" />
<glyph unicode="&#x201c;" horiz-adv-x="415" d="M245 490l122 232h94l-94 -232h-122zM78 490l122 232h94l-94 -232h-122z" />
<glyph unicode="&#x201d;" horiz-adv-x="410" d="M249 490l95 232h122l-122 -232h-95zM83 490l94 232h122l-122 -232h-94z" />
<glyph unicode="&#x201e;" horiz-adv-x="438" d="M221 129h122l-123 -232h-94zM54 129h122l-122 -232h-95z" />
<glyph unicode="&#x2022;" horiz-adv-x="428" d="M212 124q-70 0 -118.5 49t-48.5 118t48.5 118t118.5 49q69 0 118 -49t49 -118t-49 -118t-118 -49z" />
<glyph unicode="&#x2026;" horiz-adv-x="836" d="M584 0l25 128h124l-25 -128h-124zM299 0l25 128h124l-25 -128h-124zM15 0l24 128h124l-25 -128h-123z" />
<glyph unicode="&#x202f;" horiz-adv-x="181" />
<glyph unicode="&#x2039;" horiz-adv-x="367" d="M163 77l-129 206l191 205h126l-201 -211l129 -200h-116z" />
<glyph unicode="&#x203a;" horiz-adv-x="370" d="M12 77l201 211l-128 200h116l129 -206l-191 -205h-127z" />
<glyph unicode="&#x205f;" horiz-adv-x="226" />
<glyph unicode="&#x20ac;" horiz-adv-x="607" d="M30 243l15 73h55q7 52 13 82h-53l15 73h62q51 112 152 181.5t222 69.5q48 0 89 -9q23 -5 36 -10l-50 -104l-24 5q-28 5 -54 5q-71 0 -131 -36.5t-97 -101.5h257l-31 -73h-259q-11 -37 -13 -82h242l-30 -73h-202q12 -65 56 -102.5t117 -37.5q33 0 66 7l29 7l1 -113 q-5 -2 -16 -4.5t-14 -3.5q-38 -8 -77 -8q-122 0 -205 69.5t-97 185.5h-74z" />
<glyph unicode="&#x2122;" horiz-adv-x="1046" d="M518 267l35 443h88l92 -209q2 -5 5 -14.5t4 -12.5l4 -15h2q2 10 4 15l10 27l92 209h88l34 -443h-96l-16 228v21q0 7 1 10h-2l-78 -178h-75l-78 178h-2q1 -3 1 -10v-21l-18 -228h-95zM248 267v359h-148v84h391v-84h-147v-359h-96z" />
<glyph unicode="&#x25fc;" horiz-adv-x="510" d="M0 510h510v-510h-510v510z" />
</font>
</defs>
</svg>
